# The Great Editor v0.0.1
mtllib floor_1.mtl
o floor_1
v 0.6129137432410117 -0.768828837221119 0
v 0.6129137432410117 -0.768828837221119 -0.1
v 29.857092650539663 -0.8905477903348055 0
v 29.857092650539663 -0.8905477903348055 -0.1
v 29.962983820770894 -38.47053144596832 0
v 29.962983820770894 -38.47053144596832 -0.1
v 32.292665783111104 -38.39365364339641 0
v 32.292665783111104 -38.39365364339641 -0.1
v 32.295384198469726 -45.09469993690905 0
v 32.295384198469726 -45.09469993690905 -0.1
v 1.052280801297387 -45.32444414333925 0
v 1.052280801297387 -45.32444414333925 -0.1
vt 0.6129137432410117 -0.768828837221119 0
vt 29.857092650539663 -0.8905477903348055 0
vt 29.962983820770894 -38.47053144596832 0
vt 32.292665783111104 -38.39365364339641 0
vt 32.295384198469726 -45.09469993690905 0
vt 1.052280801297387 -45.32444414333925 0
vn 0 0 1
vn 0 0 -1
usemtl floor_1
s off
f 1/1/1 11/6/1 5/3/1
f 6/3/2 12/6/2 2/1/2
f 1/1/1 5/3/1 3/2/1
f 4/2/2 6/3/2 2/1/2
f 7/4/1 5/3/1 9/5/1
f 10/5/2 6/3/2 8/4/2
f 9/5/1 5/3/1 11/6/1
f 12/6/2 6/3/2 10/5/2
