# The Great Editor v0.0.1
mtllib floor_1.mtl
o floor_1
v 0.04046195677554126 -0.0689711079643003 0
v 0.04046195677554126 -0.0689711079643003 -0.1
v 9.991773326872154 -0.005307649625385588 0
v 9.991773326872154 -0.005307649625385588 -0.1
v 10.03421563243143 -6.639515229689795 0
v 10.03421563243143 -6.639515229689795 -0.1
v 0.08290426233481774 -6.703178688028709 0
v 0.08290426233481774 -6.703178688028709 -0.1
v 6.116666666666667 -4.883333333333334 0
v 6.116666666666667 -4.883333333333334 -0.1
v 6.116666666666667 -1.7833333333333334 0
v 6.116666666666667 -1.7833333333333334 -0.1
v 9.216666666666667 -1.7833333333333334 0
v 9.216666666666667 -1.7833333333333334 -0.1
v 9.216666666666667 -4.883333333333334 0
v 9.216666666666667 -4.883333333333334 -0.1
vt 0.04046195677554126 -0.0689711079643003 0
vt 9.991773326872154 -0.005307649625385588 0
vt 10.03421563243143 -6.639515229689795 0
vt 0.08290426233481774 -6.703178688028709 0
vt 6.116666666666667 -4.883333333333334 0
vt 6.116666666666667 -1.7833333333333334 0
vt 9.216666666666667 -1.7833333333333334 0
vt 9.216666666666667 -4.883333333333334 0
vn 0 0 1
vn 0 0 -1
usemtl floor_1
s off
f 1/1/1 7/4/1 9/5/1
f 10/5/2 8/4/2 2/1/2
f 1/1/1 9/5/1 11/6/1
f 12/6/2 10/5/2 2/1/2
f 1/1/1 11/6/1 3/2/1
f 4/2/2 12/6/2 2/1/2
f 3/2/1 11/6/1 13/7/1
f 14/7/2 12/6/2 4/2/2
f 3/2/1 13/7/1 5/3/1
f 6/3/2 14/7/2 4/2/2
f 5/3/1 13/7/1 15/8/1
f 16/8/2 14/7/2 6/3/2
f 5/3/1 15/8/1 9/5/1
f 10/5/2 16/8/2 6/3/2
f 5/3/1 9/5/1 7/4/1
f 8/4/2 10/5/2 6/3/2
