# The Great Editor v0.0.1
mtllib floor_1.mtl
o floor_1
v 0.6129137432410117 -0.768828837221119 0
v 0.6129137432410117 -0.768828837221119 -0.1
v 29.857092650539663 -0.8905477903348055 0
v 29.857092650539663 -0.8905477903348055 -0.1
v 29.962983820770894 -38.47053144596832 0
v 29.962983820770894 -38.47053144596832 -0.1
v 32.292665783111104 -38.39365364339641 0
v 32.292665783111104 -38.39365364339641 -0.1
v 32.295384198469726 -45.09469993690905 0
v 32.295384198469726 -45.09469993690905 -0.1
v 1.052280801297387 -45.32444414333925 0
v 1.052280801297387 -45.32444414333925 -0.1
v 12.923163058344308 -28.166613667447187 0
v 12.923163058344308 -28.166613667447187 -0.1
v 15.02316305834431 -28.166613667447187 0
v 15.02316305834431 -28.166613667447187 -0.1
v 29.958872842401547 -37.01157599584521 0
v 29.958872842401547 -37.01157599584521 -0.1
v 15.02316305834431 -30.26661366744719 0
v 15.02316305834431 -30.26661366744719 -0.1
v 12.923163058344308 -30.26661366744719 0
v 12.923163058344308 -30.26661366744719 -0.1
vt 0.6129137432410117 -0.768828837221119 0
vt 29.857092650539663 -0.8905477903348055 0
vt 29.962983820770894 -38.47053144596832 0
vt 32.292665783111104 -38.39365364339641 0
vt 32.295384198469726 -45.09469993690905 0
vt 1.052280801297387 -45.32444414333925 0
vt 12.923163058344308 -28.166613667447187 0
vt 15.02316305834431 -28.166613667447187 0
vt 29.958872842401547 -37.01157599584521 0
vt 15.02316305834431 -30.26661366744719 0
vt 12.923163058344308 -30.26661366744719 0
vn 0 0 1
vn 0 0 -1
usemtl floor_1
s off
f 1/1/1 11/6/1 13/7/1
f 14/7/2 12/6/2 2/1/2
f 1/1/1 13/7/1 15/8/1
f 16/8/2 14/7/2 2/1/2
f 1/1/1 15/8/1 3/2/1
f 4/2/2 16/8/2 2/1/2
f 3/2/1 15/8/1 17/9/1
f 18/9/2 16/8/2 4/2/2
f 15/8/1 5/3/1 17/9/1
f 18/9/2 6/3/2 16/8/2
f 7/4/1 5/3/1 9/5/1
f 10/5/2 6/3/2 8/4/2
f 9/5/1 5/3/1 11/6/1
f 12/6/2 6/3/2 10/5/2
f 11/6/1 5/3/1 19/10/1
f 20/10/2 6/3/2 12/6/2
f 11/6/1 19/10/1 21/11/1
f 22/11/2 20/10/2 12/6/2
f 11/6/1 21/11/1 13/7/1
f 14/7/2 22/11/2 12/6/2
f 15/8/1 19/10/1 5/3/1
f 6/3/2 20/10/2 16/8/2
